name C:\Users\u0101727\Documents\MyRepositories\upper-imu-dc\Results\main_tracking\Case_32\ABD01_linearAccelerations_bodyFrame.mot
datacolumns 4
datarows 58
range 4.56000000 5.13000000
endheader 
time	radius_imu_x	radius_imu_y	radius_imu_z	
          4.56000000	         -1.08072448	          1.04240976	          9.41021489	
          4.57000000	         -1.06143194	          0.95140272	          9.46323566	
          4.58000000	         -1.04783806	          0.86049408	          9.52238498	
          4.59000000	         -1.03884501	          0.76966604	          9.58351762	
          4.60000000	         -1.03599619	          0.67864252	          9.64165461	
          4.61000000	         -1.04175387	          0.58767232	          9.69090015	
          4.62000000	         -1.05760766	          0.49791835	          9.72503990	
          4.63000000	         -1.08323865	          0.41097009	          9.73880681	
          4.64000000	         -1.11677459	          0.32775595	          9.72938278	
          4.65000000	         -1.15513900	          0.24784502	          9.69750545	
          4.66000000	         -1.19382271	          0.16983661	          9.64754263	
          4.67000000	         -1.22631930	          0.09255552	          9.58629076	
          4.68000000	         -1.24421486	          0.01597925	          9.52102290	
          4.69000000	         -1.23883903	         -0.05903045	          9.45777877	
          4.70000000	         -1.20448243	         -0.13196460	          9.40096623	
          4.71000000	         -1.14123641	         -0.20362488	          9.35320380	
          4.72000000	         -1.05613184	         -0.27660196	          9.31599780	
          4.73000000	         -0.96194103	         -0.35440901	          9.29007128	
          4.74000000	         -0.87372996	         -0.44012846	          9.27547160	
          4.75000000	         -0.80406779	         -0.53499388	          9.27151842	
          4.76000000	         -0.75864550	         -0.63763939	          9.27685227	
          4.77000000	         -0.73458882	         -0.74432616	          9.28974244	
          4.78000000	         -0.72258701	         -0.84999707	          9.30842998	
          4.79000000	         -0.71146378	         -0.94958480	          9.33118860	
          4.80000000	         -0.69236331	         -1.03898006	          9.35612864	
          4.81000000	         -0.66066385	         -1.11552027	          9.38110436	
          4.82000000	         -0.61570408	         -1.17825372	          9.40402583	
          4.83000000	         -0.55951591	         -1.22816920	          9.42351823	
          4.84000000	         -0.49573484	         -1.26828080	          9.43958710	
          4.85000000	         -0.42921572	         -1.30335138	          9.45391402	
          4.86000000	         -0.36612914	         -1.33915562	          9.46956692	
          4.87000000	         -0.31401119	         -1.38142288	          9.49016471	
          4.88000000	         -0.28138283	         -1.43481902	          9.51874936	
          4.89000000	         -0.27673121	         -1.50220110	          9.55674318	
          4.90000000	         -0.30672570	         -1.58404379	          9.60329329	
          4.91000000	         -0.37376898	         -1.67795556	          9.65507989	
          4.92000000	         -0.47384580	         -1.77866801	          9.70656535	
          4.93000000	         -0.59630769	         -1.87911928	          9.75072010	
          4.94000000	         -0.72616338	         -1.97256079	          9.78017422	
          4.95000000	         -0.84760041	         -2.05460802	          9.78859820	
          4.96000000	         -0.94718003	         -2.12422397	          9.77198671	
          4.97000000	         -1.01574941	         -2.18325113	          9.72963449	
          4.98000000	         -1.04923573	         -2.23525184	          9.66428160	
          4.99000000	         -1.04835521	         -2.28425776	          9.58133057	
          5.00000000	         -1.01728397	         -2.33360863	          9.48753247	
          5.01000000	         -0.96235578	         -2.38541473	          9.38967394	
          5.02000000	         -0.89129083	         -2.44058357	          9.29370989	
          5.03000000	         -0.81287033	         -2.49926094	          9.20427446	
          5.04000000	         -0.73649321	         -2.56142607	          9.12435087	
          5.05000000	         -0.67117807	         -2.62737285	          9.05510046	
          5.06000000	         -0.62403726	         -2.69783624	          8.99605128	
          5.07000000	         -0.59878702	         -2.77369928	          8.94569629	
          5.08000000	         -0.59508723	         -2.85545629	          8.90227783	
          5.09000000	         -0.60899624	         -2.94271174	          8.86444532	
          5.10000000	         -0.63412070	         -3.03398812	          8.83148456	
          5.11000000	         -0.66291847	         -3.12703102	          8.80293654	
          5.12000000	         -0.68781115	         -3.21945612	          8.77784219	
          5.13000000	         -0.70187660	         -3.30929055	          8.75419262	
